<mxfile host="app.diagrams.net" modified="2023-05-11T06:46:12.136Z" agent="Mozilla/5.0 (Windows NT 10.0; Win64; x64) AppleWebKit/537.36 (KHTML, like Gecko) Chrome/112.0.0.0 Safari/537.36 Edg/112.0.1722.58" etag="ongh-AlWpzcjU6IVdnQn" version="21.2.9" type="github">
  <diagram name="第 1 页" id="tOpcZLVh9bg7IvwKBbEm">
    <mxGraphModel dx="1393" dy="987" grid="0" gridSize="10" guides="1" tooltips="1" connect="1" arrows="1" fold="1" page="0" pageScale="1" pageWidth="827" pageHeight="1169" math="0" shadow="0">
      <root>
        <mxCell id="0" />
        <mxCell id="1" parent="0" />
        <mxCell id="UzdDB1E4q8hmVD1MrNQI-17" style="edgeStyle=orthogonalEdgeStyle;rounded=0;orthogonalLoop=1;jettySize=auto;html=1;entryX=0;entryY=0.5;entryDx=0;entryDy=0;" edge="1" parent="1" source="B-o-XfKaj6UpTlLON4LS-2" target="UzdDB1E4q8hmVD1MrNQI-3">
          <mxGeometry relative="1" as="geometry" />
        </mxCell>
        <mxCell id="UzdDB1E4q8hmVD1MrNQI-18" style="edgeStyle=orthogonalEdgeStyle;rounded=0;orthogonalLoop=1;jettySize=auto;html=1;" edge="1" parent="1" source="B-o-XfKaj6UpTlLON4LS-2" target="UzdDB1E4q8hmVD1MrNQI-4">
          <mxGeometry relative="1" as="geometry" />
        </mxCell>
        <mxCell id="UzdDB1E4q8hmVD1MrNQI-19" value="" style="edgeStyle=orthogonalEdgeStyle;rounded=0;orthogonalLoop=1;jettySize=auto;html=1;" edge="1" parent="1" source="B-o-XfKaj6UpTlLON4LS-2" target="UzdDB1E4q8hmVD1MrNQI-4">
          <mxGeometry relative="1" as="geometry" />
        </mxCell>
        <mxCell id="UzdDB1E4q8hmVD1MrNQI-20" style="edgeStyle=orthogonalEdgeStyle;rounded=0;orthogonalLoop=1;jettySize=auto;html=1;entryX=0;entryY=0.5;entryDx=0;entryDy=0;" edge="1" parent="1" source="B-o-XfKaj6UpTlLON4LS-2" target="UzdDB1E4q8hmVD1MrNQI-5">
          <mxGeometry relative="1" as="geometry">
            <mxPoint x="107.80001831054688" y="205.24002075195312" as="targetPoint" />
          </mxGeometry>
        </mxCell>
        <mxCell id="B-o-XfKaj6UpTlLON4LS-2" value="&lt;br&gt;&lt;span style=&quot;color: rgb(0, 0, 0); font-family: Helvetica; font-size: 12px; font-style: normal; font-variant-ligatures: normal; font-variant-caps: normal; font-weight: 400; letter-spacing: normal; orphans: 2; text-align: center; text-indent: 0px; text-transform: none; widows: 2; word-spacing: 0px; -webkit-text-stroke-width: 0px; background-color: rgb(255, 255, 255); text-decoration-thickness: initial; text-decoration-style: initial; text-decoration-color: initial; float: none; display: inline !important;&quot;&gt;基于&lt;/span&gt;&lt;span style=&quot;border-color: var(--border-color); color: rgb(0, 0, 0); font-style: normal; font-variant-ligatures: normal; font-variant-caps: normal; font-weight: 400; letter-spacing: normal; orphans: 2; text-align: center; text-indent: 0px; text-transform: none; widows: 2; word-spacing: 0px; -webkit-text-stroke-width: 0px; background-color: rgb(255, 255, 255); text-decoration-thickness: initial; text-decoration-style: initial; text-decoration-color: initial; font-size: 10.5pt; font-family: &amp;quot;Times New Roman&amp;quot;, serif;&quot; lang=&quot;EN-US&quot;&gt;Web&lt;/span&gt;&lt;span style=&quot;border-color: var(--border-color); color: rgb(0, 0, 0); font-style: normal; font-variant-ligatures: normal; font-variant-caps: normal; font-weight: 400; letter-spacing: normal; orphans: 2; text-align: center; text-indent: 0px; text-transform: none; widows: 2; word-spacing: 0px; -webkit-text-stroke-width: 0px; background-color: rgb(255, 255, 255); text-decoration-thickness: initial; text-decoration-style: initial; text-decoration-color: initial; font-size: 10.5pt; font-family: 宋体;&quot;&gt;的短视频分享与交流系统Web端&lt;/span&gt;&lt;br&gt;" style="rounded=0;whiteSpace=wrap;html=1;" parent="1" vertex="1">
          <mxGeometry x="-143" y="-98" width="181" height="68" as="geometry" />
        </mxCell>
        <mxCell id="UzdDB1E4q8hmVD1MrNQI-23" style="edgeStyle=orthogonalEdgeStyle;rounded=0;orthogonalLoop=1;jettySize=auto;html=1;entryX=0;entryY=0.5;entryDx=0;entryDy=0;" edge="1" parent="1" source="UzdDB1E4q8hmVD1MrNQI-3" target="UzdDB1E4q8hmVD1MrNQI-10">
          <mxGeometry relative="1" as="geometry" />
        </mxCell>
        <mxCell id="UzdDB1E4q8hmVD1MrNQI-24" style="edgeStyle=orthogonalEdgeStyle;rounded=0;orthogonalLoop=1;jettySize=auto;html=1;entryX=0;entryY=0.5;entryDx=0;entryDy=0;exitX=1;exitY=0.5;exitDx=0;exitDy=0;" edge="1" parent="1" source="UzdDB1E4q8hmVD1MrNQI-8" target="UzdDB1E4q8hmVD1MrNQI-9">
          <mxGeometry relative="1" as="geometry" />
        </mxCell>
        <mxCell id="UzdDB1E4q8hmVD1MrNQI-27" style="edgeStyle=orthogonalEdgeStyle;rounded=0;orthogonalLoop=1;jettySize=auto;html=1;entryX=0;entryY=0.5;entryDx=0;entryDy=0;" edge="1" parent="1" source="UzdDB1E4q8hmVD1MrNQI-3" target="UzdDB1E4q8hmVD1MrNQI-8">
          <mxGeometry relative="1" as="geometry" />
        </mxCell>
        <mxCell id="UzdDB1E4q8hmVD1MrNQI-3" value="基础功能模块" style="rounded=0;whiteSpace=wrap;html=1;" vertex="1" parent="1">
          <mxGeometry x="129" y="-311" width="123" height="29" as="geometry" />
        </mxCell>
        <mxCell id="UzdDB1E4q8hmVD1MrNQI-43" style="edgeStyle=orthogonalEdgeStyle;rounded=0;orthogonalLoop=1;jettySize=auto;html=1;entryX=0;entryY=0.5;entryDx=0;entryDy=0;" edge="1" parent="1" source="UzdDB1E4q8hmVD1MrNQI-4" target="UzdDB1E4q8hmVD1MrNQI-37">
          <mxGeometry relative="1" as="geometry">
            <mxPoint x="279.00006103515625" y="-126.60000610351562" as="targetPoint" />
          </mxGeometry>
        </mxCell>
        <mxCell id="UzdDB1E4q8hmVD1MrNQI-53" style="edgeStyle=orthogonalEdgeStyle;rounded=0;orthogonalLoop=1;jettySize=auto;html=1;entryX=0;entryY=0.5;entryDx=0;entryDy=0;" edge="1" parent="1" source="UzdDB1E4q8hmVD1MrNQI-4" target="UzdDB1E4q8hmVD1MrNQI-36">
          <mxGeometry relative="1" as="geometry">
            <mxPoint x="291.00006103515625" y="-97.7999267578125" as="targetPoint" />
          </mxGeometry>
        </mxCell>
        <mxCell id="UzdDB1E4q8hmVD1MrNQI-59" style="edgeStyle=orthogonalEdgeStyle;rounded=0;orthogonalLoop=1;jettySize=auto;html=1;entryX=0;entryY=0.5;entryDx=0;entryDy=0;" edge="1" parent="1" source="UzdDB1E4q8hmVD1MrNQI-4" target="UzdDB1E4q8hmVD1MrNQI-35">
          <mxGeometry relative="1" as="geometry" />
        </mxCell>
        <mxCell id="UzdDB1E4q8hmVD1MrNQI-60" style="edgeStyle=orthogonalEdgeStyle;rounded=0;orthogonalLoop=1;jettySize=auto;html=1;entryX=0;entryY=0.5;entryDx=0;entryDy=0;" edge="1" parent="1" source="UzdDB1E4q8hmVD1MrNQI-4" target="UzdDB1E4q8hmVD1MrNQI-38">
          <mxGeometry relative="1" as="geometry">
            <mxPoint x="284.60003662109375" y="-5.799957275390625" as="targetPoint" />
          </mxGeometry>
        </mxCell>
        <mxCell id="UzdDB1E4q8hmVD1MrNQI-4" value="视频功能模块" style="rounded=0;whiteSpace=wrap;html=1;" vertex="1" parent="1">
          <mxGeometry x="129" y="-78.5" width="123" height="29" as="geometry" />
        </mxCell>
        <mxCell id="UzdDB1E4q8hmVD1MrNQI-88" style="edgeStyle=orthogonalEdgeStyle;rounded=0;orthogonalLoop=1;jettySize=auto;html=1;entryX=0;entryY=0.379;entryDx=0;entryDy=0;entryPerimeter=0;" edge="1" parent="1" source="UzdDB1E4q8hmVD1MrNQI-5" target="UzdDB1E4q8hmVD1MrNQI-85">
          <mxGeometry relative="1" as="geometry">
            <mxPoint x="290" y="202" as="targetPoint" />
          </mxGeometry>
        </mxCell>
        <mxCell id="UzdDB1E4q8hmVD1MrNQI-89" value="" style="edgeStyle=orthogonalEdgeStyle;rounded=0;orthogonalLoop=1;jettySize=auto;html=1;" edge="1" parent="1" source="UzdDB1E4q8hmVD1MrNQI-5" target="UzdDB1E4q8hmVD1MrNQI-84">
          <mxGeometry relative="1" as="geometry" />
        </mxCell>
        <mxCell id="UzdDB1E4q8hmVD1MrNQI-90" style="edgeStyle=orthogonalEdgeStyle;rounded=0;orthogonalLoop=1;jettySize=auto;html=1;entryX=0;entryY=0.5;entryDx=0;entryDy=0;" edge="1" parent="1" source="UzdDB1E4q8hmVD1MrNQI-5" target="UzdDB1E4q8hmVD1MrNQI-83">
          <mxGeometry relative="1" as="geometry">
            <mxPoint x="300" y="332" as="targetPoint" />
          </mxGeometry>
        </mxCell>
        <mxCell id="UzdDB1E4q8hmVD1MrNQI-5" value="社交功能模块" style="rounded=0;whiteSpace=wrap;html=1;" vertex="1" parent="1">
          <mxGeometry x="129" y="253" width="123" height="29" as="geometry" />
        </mxCell>
        <mxCell id="UzdDB1E4q8hmVD1MrNQI-32" style="edgeStyle=orthogonalEdgeStyle;rounded=0;orthogonalLoop=1;jettySize=auto;html=1;entryX=0;entryY=0.5;entryDx=0;entryDy=0;" edge="1" parent="1" source="UzdDB1E4q8hmVD1MrNQI-8" target="UzdDB1E4q8hmVD1MrNQI-28">
          <mxGeometry relative="1" as="geometry" />
        </mxCell>
        <mxCell id="UzdDB1E4q8hmVD1MrNQI-33" style="edgeStyle=orthogonalEdgeStyle;rounded=0;orthogonalLoop=1;jettySize=auto;html=1;entryX=0;entryY=0.5;entryDx=0;entryDy=0;" edge="1" parent="1" source="UzdDB1E4q8hmVD1MrNQI-8" target="UzdDB1E4q8hmVD1MrNQI-30">
          <mxGeometry relative="1" as="geometry" />
        </mxCell>
        <mxCell id="UzdDB1E4q8hmVD1MrNQI-34" style="edgeStyle=orthogonalEdgeStyle;rounded=0;orthogonalLoop=1;jettySize=auto;html=1;entryX=0;entryY=0.5;entryDx=0;entryDy=0;" edge="1" parent="1" source="UzdDB1E4q8hmVD1MrNQI-8" target="UzdDB1E4q8hmVD1MrNQI-29">
          <mxGeometry relative="1" as="geometry">
            <mxPoint x="465.4000244140625" y="-109.79995727539062" as="targetPoint" />
          </mxGeometry>
        </mxCell>
        <mxCell id="UzdDB1E4q8hmVD1MrNQI-8" value="个人中心" style="rounded=0;whiteSpace=wrap;html=1;" vertex="1" parent="1">
          <mxGeometry x="296" y="-268" width="123" height="29" as="geometry" />
        </mxCell>
        <mxCell id="UzdDB1E4q8hmVD1MrNQI-9" value="个人信息管理" style="rounded=0;whiteSpace=wrap;html=1;" vertex="1" parent="1">
          <mxGeometry x="495" y="-372" width="123" height="29" as="geometry" />
        </mxCell>
        <mxCell id="UzdDB1E4q8hmVD1MrNQI-10" value="登录注册、退出登录" style="rounded=0;whiteSpace=wrap;html=1;" vertex="1" parent="1">
          <mxGeometry x="296" y="-387" width="123" height="29" as="geometry" />
        </mxCell>
        <mxCell id="UzdDB1E4q8hmVD1MrNQI-28" value="个人视频管理" style="rounded=0;whiteSpace=wrap;html=1;" vertex="1" parent="1">
          <mxGeometry x="495" y="-313" width="123" height="29" as="geometry" />
        </mxCell>
        <mxCell id="UzdDB1E4q8hmVD1MrNQI-29" value="修改密码" style="rounded=0;whiteSpace=wrap;html=1;" vertex="1" parent="1">
          <mxGeometry x="495" y="-195" width="123" height="29" as="geometry" />
        </mxCell>
        <mxCell id="UzdDB1E4q8hmVD1MrNQI-30" value="修改头像" style="rounded=0;whiteSpace=wrap;html=1;" vertex="1" parent="1">
          <mxGeometry x="495" y="-254" width="123" height="29" as="geometry" />
        </mxCell>
        <mxCell id="UzdDB1E4q8hmVD1MrNQI-35" value="发布视频" style="rounded=0;whiteSpace=wrap;html=1;" vertex="1" parent="1">
          <mxGeometry x="296" y="-72" width="123" height="29" as="geometry" />
        </mxCell>
        <mxCell id="UzdDB1E4q8hmVD1MrNQI-36" value="查看热门视频" style="rounded=0;whiteSpace=wrap;html=1;" vertex="1" parent="1">
          <mxGeometry x="296" y="-113" width="123" height="29" as="geometry" />
        </mxCell>
        <mxCell id="UzdDB1E4q8hmVD1MrNQI-37" value="搜索视频" style="rounded=0;whiteSpace=wrap;html=1;" vertex="1" parent="1">
          <mxGeometry x="296" y="-154" width="123" height="29" as="geometry" />
        </mxCell>
        <mxCell id="UzdDB1E4q8hmVD1MrNQI-70" style="edgeStyle=orthogonalEdgeStyle;rounded=0;orthogonalLoop=1;jettySize=auto;html=1;entryX=0;entryY=0.5;entryDx=0;entryDy=0;" edge="1" parent="1" source="UzdDB1E4q8hmVD1MrNQI-38" target="UzdDB1E4q8hmVD1MrNQI-62">
          <mxGeometry relative="1" as="geometry">
            <mxPoint x="481.4000244140625" y="-79.39997863769531" as="targetPoint" />
          </mxGeometry>
        </mxCell>
        <mxCell id="UzdDB1E4q8hmVD1MrNQI-73" style="edgeStyle=orthogonalEdgeStyle;rounded=0;orthogonalLoop=1;jettySize=auto;html=1;entryX=0;entryY=0.5;entryDx=0;entryDy=0;" edge="1" parent="1" source="UzdDB1E4q8hmVD1MrNQI-38" target="UzdDB1E4q8hmVD1MrNQI-69">
          <mxGeometry relative="1" as="geometry">
            <mxPoint x="453.4000244140625" y="34.199981689453125" as="targetPoint" />
          </mxGeometry>
        </mxCell>
        <mxCell id="UzdDB1E4q8hmVD1MrNQI-38" value="视频详情页" style="rounded=0;whiteSpace=wrap;html=1;" vertex="1" parent="1">
          <mxGeometry x="296" y="-30" width="123" height="29" as="geometry" />
        </mxCell>
        <mxCell id="UzdDB1E4q8hmVD1MrNQI-62" value="播放视频" style="rounded=0;whiteSpace=wrap;html=1;" vertex="1" parent="1">
          <mxGeometry x="493" y="-113" width="123" height="29" as="geometry" />
        </mxCell>
        <mxCell id="UzdDB1E4q8hmVD1MrNQI-63" value="查看视频播放量" style="rounded=0;whiteSpace=wrap;html=1;" vertex="1" parent="1">
          <mxGeometry x="495" y="54" width="123" height="29" as="geometry" />
        </mxCell>
        <mxCell id="UzdDB1E4q8hmVD1MrNQI-64" value="评论视频、回复评论" style="rounded=0;whiteSpace=wrap;html=1;" vertex="1" parent="1">
          <mxGeometry x="495" y="12" width="123" height="29" as="geometry" />
        </mxCell>
        <mxCell id="UzdDB1E4q8hmVD1MrNQI-65" value="顶/踩视频" style="rounded=0;whiteSpace=wrap;html=1;" vertex="1" parent="1">
          <mxGeometry x="493" y="-30" width="123" height="29" as="geometry" />
        </mxCell>
        <mxCell id="UzdDB1E4q8hmVD1MrNQI-66" value="收藏视频" style="rounded=0;whiteSpace=wrap;html=1;" vertex="1" parent="1">
          <mxGeometry x="493" y="-72" width="123" height="29" as="geometry" />
        </mxCell>
        <mxCell id="UzdDB1E4q8hmVD1MrNQI-69" value="查看相关视频" style="rounded=0;whiteSpace=wrap;html=1;" vertex="1" parent="1">
          <mxGeometry x="495" y="96" width="123" height="29" as="geometry" />
        </mxCell>
        <mxCell id="UzdDB1E4q8hmVD1MrNQI-76" style="edgeStyle=orthogonalEdgeStyle;rounded=0;orthogonalLoop=1;jettySize=auto;html=1;entryX=0;entryY=0.5;entryDx=0;entryDy=0;exitX=1;exitY=0.5;exitDx=0;exitDy=0;" edge="1" parent="1" source="UzdDB1E4q8hmVD1MrNQI-38" target="UzdDB1E4q8hmVD1MrNQI-66">
          <mxGeometry relative="1" as="geometry">
            <mxPoint x="503" y="-88" as="targetPoint" />
            <mxPoint x="429" y="-5" as="sourcePoint" />
          </mxGeometry>
        </mxCell>
        <mxCell id="UzdDB1E4q8hmVD1MrNQI-77" style="edgeStyle=orthogonalEdgeStyle;rounded=0;orthogonalLoop=1;jettySize=auto;html=1;entryX=0;entryY=0.5;entryDx=0;entryDy=0;exitX=1;exitY=0.5;exitDx=0;exitDy=0;" edge="1" parent="1" source="UzdDB1E4q8hmVD1MrNQI-38" target="UzdDB1E4q8hmVD1MrNQI-65">
          <mxGeometry relative="1" as="geometry">
            <mxPoint x="513" y="-78" as="targetPoint" />
            <mxPoint x="439" y="5" as="sourcePoint" />
          </mxGeometry>
        </mxCell>
        <mxCell id="UzdDB1E4q8hmVD1MrNQI-78" style="edgeStyle=orthogonalEdgeStyle;rounded=0;orthogonalLoop=1;jettySize=auto;html=1;entryX=0;entryY=0.5;entryDx=0;entryDy=0;exitX=1;exitY=0.5;exitDx=0;exitDy=0;" edge="1" parent="1" source="UzdDB1E4q8hmVD1MrNQI-38" target="UzdDB1E4q8hmVD1MrNQI-64">
          <mxGeometry relative="1" as="geometry">
            <mxPoint x="523" y="-68" as="targetPoint" />
            <mxPoint x="429" y="10" as="sourcePoint" />
          </mxGeometry>
        </mxCell>
        <mxCell id="UzdDB1E4q8hmVD1MrNQI-79" style="edgeStyle=orthogonalEdgeStyle;rounded=0;orthogonalLoop=1;jettySize=auto;html=1;exitX=1;exitY=0.5;exitDx=0;exitDy=0;entryX=0;entryY=0.5;entryDx=0;entryDy=0;" edge="1" parent="1" source="UzdDB1E4q8hmVD1MrNQI-38" target="UzdDB1E4q8hmVD1MrNQI-63">
          <mxGeometry relative="1" as="geometry">
            <mxPoint x="436" y="45" as="targetPoint" />
            <mxPoint x="369" y="73" as="sourcePoint" />
          </mxGeometry>
        </mxCell>
        <mxCell id="UzdDB1E4q8hmVD1MrNQI-83" value="关注/取关用户" style="rounded=0;whiteSpace=wrap;html=1;" vertex="1" parent="1">
          <mxGeometry x="296" y="315" width="123" height="29" as="geometry" />
        </mxCell>
        <mxCell id="UzdDB1E4q8hmVD1MrNQI-84" value="私信聊天" style="rounded=0;whiteSpace=wrap;html=1;" vertex="1" parent="1">
          <mxGeometry x="296" y="253" width="123" height="29" as="geometry" />
        </mxCell>
        <mxCell id="UzdDB1E4q8hmVD1MrNQI-85" value="查看回复评论" style="rounded=0;whiteSpace=wrap;html=1;" vertex="1" parent="1">
          <mxGeometry x="296" y="191" width="123" height="29" as="geometry" />
        </mxCell>
      </root>
    </mxGraphModel>
  </diagram>
</mxfile>
